<mxfile host="app.diagrams.net" modified="2022-11-26T08:14:39.835Z" agent="5.0 (Windows NT 10.0; Win64; x64) AppleWebKit/537.36 (KHTML, like Gecko) Chrome/105.0.0.0 Safari/537.36" version="20.6.0" etag="lwK8clMIXx8-eSITn7Rl" type="github">
  <diagram id="tg17tLy-XA2kkZirFRVz" name="Trang-1">
    <mxGraphModel dx="942" dy="582" grid="1" gridSize="10" guides="1" tooltips="1" connect="1" arrows="1" fold="1" page="1" pageScale="1" pageWidth="827" pageHeight="1169" math="0" shadow="0">
      <root>
        <mxCell id="0" />
        <mxCell id="1" parent="0" />
        <mxCell id="DvtB3PzLBYmNerBQFzdr-5" style="edgeStyle=orthogonalEdgeStyle;rounded=0;orthogonalLoop=1;jettySize=auto;html=1;fontSize=30;" edge="1" parent="1" source="DvtB3PzLBYmNerBQFzdr-1" target="DvtB3PzLBYmNerBQFzdr-2">
          <mxGeometry relative="1" as="geometry">
            <mxPoint x="440" y="120" as="targetPoint" />
          </mxGeometry>
        </mxCell>
        <mxCell id="DvtB3PzLBYmNerBQFzdr-1" value="&lt;span id=&quot;docs-internal-guid-24cfe74f-7fff-80c8-4b2b-47ca78d1e50c&quot; style=&quot;font-size: 30px;&quot;&gt;&lt;span style=&quot;font-size: 30px; font-family: &amp;quot;Times New Roman&amp;quot;; background-color: transparent; font-variant-numeric: normal; font-variant-east-asian: normal;&quot;&gt;π&lt;sub style=&quot;font-size: 30px;&quot;&gt;s.fname, s.lname, r.signup_date&lt;/sub&gt;&lt;/span&gt;&lt;/span&gt;" style="text;html=1;strokeColor=none;fillColor=none;align=center;verticalAlign=middle;whiteSpace=wrap;rounded=0;fontSize=30;" vertex="1" parent="1">
          <mxGeometry x="230" width="420" height="60" as="geometry" />
        </mxCell>
        <mxCell id="DvtB3PzLBYmNerBQFzdr-2" value="σ" style="text;html=1;strokeColor=none;fillColor=none;align=center;verticalAlign=middle;whiteSpace=wrap;rounded=0;fontSize=30;" vertex="1" parent="1">
          <mxGeometry x="410" y="140" width="60" height="40" as="geometry" />
        </mxCell>
        <mxCell id="DvtB3PzLBYmNerBQFzdr-8" style="rounded=0;orthogonalLoop=1;jettySize=auto;html=1;fontSize=30;endArrow=none;endFill=0;" edge="1" parent="1" source="DvtB3PzLBYmNerBQFzdr-3" target="DvtB3PzLBYmNerBQFzdr-6">
          <mxGeometry relative="1" as="geometry" />
        </mxCell>
        <mxCell id="DvtB3PzLBYmNerBQFzdr-10" style="edgeStyle=none;rounded=0;orthogonalLoop=1;jettySize=auto;html=1;entryX=0.5;entryY=0;entryDx=0;entryDy=0;fontSize=30;endArrow=none;endFill=0;" edge="1" parent="1" source="DvtB3PzLBYmNerBQFzdr-3" target="DvtB3PzLBYmNerBQFzdr-7">
          <mxGeometry relative="1" as="geometry" />
        </mxCell>
        <mxCell id="DvtB3PzLBYmNerBQFzdr-3" value="⋈&lt;span style=&quot;font-size: 25px;&quot;&gt;student_id&lt;/span&gt;" style="text;html=1;strokeColor=none;fillColor=none;align=center;verticalAlign=middle;whiteSpace=wrap;rounded=0;fontSize=30;" vertex="1" parent="1">
          <mxGeometry x="290" y="260" width="154" height="30" as="geometry" />
        </mxCell>
        <mxCell id="DvtB3PzLBYmNerBQFzdr-6" value="Student s" style="text;html=1;strokeColor=none;fillColor=none;align=center;verticalAlign=middle;whiteSpace=wrap;rounded=0;fontSize=30;" vertex="1" parent="1">
          <mxGeometry x="160" y="370" width="140" height="30" as="geometry" />
        </mxCell>
        <mxCell id="DvtB3PzLBYmNerBQFzdr-7" value="Registration r" style="text;html=1;strokeColor=none;fillColor=none;align=center;verticalAlign=middle;whiteSpace=wrap;rounded=0;fontSize=30;" vertex="1" parent="1">
          <mxGeometry x="360" y="370" width="220" height="30" as="geometry" />
        </mxCell>
      </root>
    </mxGraphModel>
  </diagram>
</mxfile>
